<svg xmlns="http://www.w3.org/2000/svg" version="1.1" xmlns:xlink="http://www.w3.org/1999/xlink" xmlns:svgjs="http://svgjs.dev/svgjs" width="1000" height="277" viewBox="0 0 1000 277"><rect width="1000" height="277" fill="#ffffff"></rect><g transform="matrix(0.85,0,0,0.85,74.4848484848485,21.296951535724858)"><svg xmlns="http://www.w3.org/2000/svg" version="1.1" xmlns:xlink="http://www.w3.org/1999/xlink" xmlns:svgjs="http://svgjs.com/svgjs" viewBox="0 0 396 110" data-background-color="#ffffff" preserveAspectRatio="xMidYMid meet" height="277" width="1000"><defs></defs><g id="tight-bounds" transform="matrix(1,0,0,1,0.2400000000000091,-0.2438507918018047)"><svg viewBox="0 0 395.52 110.4877015836036" height="110.4877015836036" width="395.52"><g><svg viewBox="0 0 397.4975999999999 111.0401400915216" height="110.4877015836036" width="395.52"><g><rect width="397.4975999999999" height="2.411220025423898" x="0" y="70.75364673518784" fill="#2b2b2b" opacity="1" stroke-width="0" stroke="transparent" fill-opacity="1" class="rect-borderrectangle-0" data-fill-palette-color="primary" rx="1%" id="borderrectangle-0" data-palette-color="#2b2b2b"></rect></g><g transform="matrix(1,0,0,1,0.9887999999999693,80.39859917420758)"><svg viewBox="0 0 395.52 30.641540917314035" height="30.641540917314035" width="395.52"><g><svg viewBox="0 0 395.52 30.641540917314035" height="30.641540917314035" width="395.52"><g><svg viewBox="0 0 395.52 30.641540917314035" height="30.641540917314035" width="395.52"><g transform="matrix(1,0,0,1,0,0)"><svg width="395.52" viewBox="3.85 -35.7 469.81 36.400000000000006" height="30.641540917314035" data-palette-color="#2b2b2b"><path d="M10.25 0L3.85 0 3.85-35 16.65-35Q20.28-35 22.99-33.85 25.7-32.7 27.2-30.35 28.7-28 28.7-24.4L28.7-24.4Q28.7-20.55 27.06-18.29 25.43-16.03 22.75-14.7L22.75-14.7 30.65 0 23.5 0 16.75-13Q16.68-13 16.63-13 16.57-13 16.5-13L16.5-13 10.25-13 10.25 0ZM10.25-29.65L10.25-18.35 14.95-18.35Q18.9-18.35 20.45-19.96 22-21.58 22-24.05L22-24.05Q22-26.68 20.48-28.16 18.95-29.65 15.2-29.65L15.2-29.65 10.25-29.65ZM54.25-13.9L54.25-8.3 39.6-8.3 39.6-13.9 54.25-13.9ZM56.2 0L46.1-28.75 47.75-28.75 37.65 0 31.45 0 43.9-35 49.95-35 62.4 0 56.2 0ZM72.8 0L66.39 0 66.39-35 72.8-35 72.8 0ZM90.64 0.7L90.64 0.7Q88.52 0.7 86.27 0.29 84.02-0.13 82.09-0.71 80.17-1.3 79.04-1.85L79.04-1.85 79.79-8.65Q81.54-7.8 83.44-7.08 85.34-6.35 87.34-5.9 89.34-5.45 91.39-5.45L91.39-5.45Q93.94-5.45 95.49-6.45 97.04-7.45 97.04-9.5L97.04-9.5Q97.04-11.08 96.17-12.04 95.29-13 93.49-13.76 91.69-14.53 88.89-15.5L88.89-15.5Q86.09-16.48 83.87-17.71 81.64-18.95 80.34-20.85 79.04-22.75 79.04-25.7L79.04-25.7Q79.04-28.6 80.47-30.86 81.89-33.13 84.73-34.41 87.57-35.7 91.79-35.7L91.79-35.7Q94.99-35.7 97.89-34.99 100.79-34.27 102.84-33.45L102.84-33.45 102.19-26.9Q99.24-28.23 96.66-28.91 94.07-29.6 91.39-29.6L91.39-29.6Q88.59-29.6 87.07-28.68 85.54-27.75 85.54-25.9L85.54-25.9Q85.54-24.43 86.39-23.53 87.24-22.63 88.82-21.99 90.39-21.35 92.59-20.65L92.59-20.65Q96.39-19.45 98.98-18.01 101.57-16.57 102.88-14.54 104.19-12.5 104.19-9.5L104.19-9.5Q104.19-8 103.72-6.24 103.24-4.48 101.84-2.9 100.44-1.33 97.76-0.31 95.07 0.7 90.64 0.7ZM132.39 0L109.49 0 109.49-35 131.89-35 131.89-28.8 116.04-28.8 116.04-21.35 128.34-21.35 128.34-15.15 116.04-15.15 116.04-6.2 132.39-6.2 132.39 0ZM150.99 0L137.89 0 137.89-35 150.99-35Q155.99-35 159.89-32.91 163.79-30.83 166.01-26.91 168.24-23 168.24-17.5L168.24-17.5Q168.24-12 166.01-8.09 163.79-4.17 159.89-2.09 155.99 0 150.99 0L150.99 0ZM144.29-29.3L144.29-5.7 150.99-5.7Q154.39-5.7 156.66-7.13 158.94-8.55 160.09-11.2 161.24-13.85 161.24-17.5L161.24-17.5Q161.24-21.15 160.09-23.8 158.94-26.45 156.66-27.88 154.39-29.3 150.99-29.3L150.99-29.3 144.29-29.3ZM204.23-13.9L204.23-8.3 189.58-8.3 189.58-13.9 204.23-13.9ZM206.18 0L196.08-28.75 197.73-28.75 187.63 0 181.43 0 193.88-35 199.93-35 212.38 0 206.18 0ZM222.78 0L216.38 0 216.38-35 222.68-35 237.63-12.4 237.63-35 244.03-35 244.03 0 238.78 0 222.78-24 222.78 0ZM267.58 0.7L267.58 0.7Q262.25 0.7 258.2-1.56 254.15-3.83 251.89-7.91 249.63-12 249.63-17.5L249.63-17.5Q249.63-23 251.97-27.09 254.3-31.18 258.4-33.44 262.5-35.7 267.78-35.7L267.78-35.7Q270.55-35.7 272.85-35.11 275.15-34.52 276.83-33.65L276.83-33.65 276.13-27.55Q274.23-28.43 272.22-28.99 270.2-29.55 267.73-29.55L267.73-29.55Q264.05-29.55 261.59-28 259.13-26.45 257.88-23.73 256.63-21 256.63-17.5L256.63-17.5Q256.63-14 257.85-11.28 259.08-8.55 261.52-7 263.95-5.45 267.58-5.45L267.58-5.45Q270.1-5.45 272.1-6 274.1-6.55 276.13-7.45L276.13-7.45 276.83-1.35Q274.85-0.43 272.49 0.14 270.13 0.7 267.58 0.7ZM288.58 0L282.18 0 282.18-35 288.58-35 288.58-21.15 304.58-21.15 304.58-35 310.98-35 310.98 0 304.58 0 304.58-15.15 288.58-15.15 288.58 0ZM333.82 0.7L333.82 0.7Q328.82 0.7 324.92-1.56 321.02-3.83 318.8-7.91 316.57-12 316.57-17.5L316.57-17.5Q316.57-23 318.8-27.09 321.02-31.18 324.92-33.44 328.82-35.7 333.82-35.7L333.82-35.7Q338.82-35.7 342.72-33.44 346.62-31.18 348.85-27.09 351.07-23 351.07-17.5L351.07-17.5Q351.07-12 348.85-7.91 346.62-3.83 342.72-1.56 338.82 0.7 333.82 0.7ZM333.82-5.5L333.82-5.5Q337.32-5.5 339.67-7.05 342.02-8.6 343.2-11.31 344.37-14.03 344.37-17.5L344.37-17.5Q344.37-20.98 343.2-23.69 342.02-26.4 339.67-27.95 337.32-29.5 333.82-29.5L333.82-29.5Q330.32-29.5 327.97-27.95 325.62-26.4 324.45-23.69 323.27-20.98 323.27-17.5L323.27-17.5Q323.27-14.03 324.45-11.31 325.62-8.6 327.97-7.05 330.32-5.5 333.82-5.5ZM363.07 0L356.67 0 356.67-35 369.47-35Q373.1-35 375.81-33.85 378.52-32.7 380.02-30.35 381.52-28 381.52-24.4L381.52-24.4Q381.52-20.55 379.88-18.29 378.25-16.03 375.57-14.7L375.57-14.7 383.47 0 376.32 0 369.57-13Q369.5-13 369.45-13 369.4-13 369.32-13L369.32-13 363.07-13 363.07 0ZM363.07-29.65L363.07-18.35 367.77-18.35Q371.72-18.35 373.27-19.96 374.82-21.58 374.82-24.05L374.82-24.05Q374.82-26.68 373.3-28.16 371.77-29.65 368.02-29.65L368.02-29.65 363.07-29.65ZM420.02 0L399.22 0 399.22-35 405.62-35 405.62-5.7 420.02-5.7 420.02 0ZM445.01 0L424.21 0 424.21-35 430.61-35 430.61-5.7 445.01-5.7 445.01 0ZM464.41 0.7L464.41 0.7Q459.09 0.7 455.04-1.56 450.99-3.83 448.72-7.91 446.46-12 446.46-17.5L446.46-17.5Q446.46-23 448.8-27.09 451.14-31.18 455.24-33.44 459.34-35.7 464.61-35.7L464.61-35.7Q467.39-35.7 469.69-35.11 471.99-34.52 473.66-33.65L473.66-33.65 472.96-27.55Q471.06-28.43 469.05-28.99 467.04-29.55 464.56-29.55L464.56-29.55Q460.89-29.55 458.42-28 455.96-26.45 454.71-23.73 453.46-21 453.46-17.5L453.46-17.5Q453.46-14 454.69-11.28 455.91-8.55 458.35-7 460.79-5.45 464.41-5.45L464.41-5.45Q466.94-5.45 468.94-6 470.94-6.55 472.96-7.45L472.96-7.45 473.66-1.35Q471.69-0.43 469.32 0.14 466.96 0.7 464.41 0.7Z" opacity="1" transform="matrix(1,0,0,1,0,0)" fill="#2b2b2b" class="undefined-text-0" data-fill-palette-color="primary" id="text-0"></path></svg></g></svg></g></svg></g></svg></g><g transform="matrix(1,0,0,1,175.57482965805355,0)"><svg viewBox="0 0 46.34794068389283 63.51991432159201" height="63.51991432159201" width="46.34794068389283"><g><svg xmlns="http://www.w3.org/2000/svg" xmlns:xlink="http://www.w3.org/1999/xlink" version="1.1" x="0" y="0" viewBox="13.516999999999998 0 72.96600000000001 100" enable-background="new 0 0 100 100" xml:space="preserve" height="63.51991432159201" width="46.34794068389283" class="icon-icon-0" fill="#f4a424" data-fill-palette-color="accent" id="icon-0"><path d="M86.482 12.673h-1.839c-18.965 0-33.29-11.565-33.435-11.682l-0.242-0.198L50.003 0l-0.002 0.002L49.997 0l-0.962 0.793-0.244 0.198c-0.144 0.117-14.469 11.682-33.434 11.682h-1.838-0.002v47.558h0.002c0 28.016 36.123 39.656 36.478 39.769 0.357-0.112 36.485-11.753 36.485-39.769h0.001L86.482 12.673 86.482 12.673zM48.243 15h3.965c3.558 1.064 5.084 5.911 3.03 8.925-0.85 1.124-1.994 2.047-3.382 2.386-0.201 0.87-0.102 1.759 0.145 2.609 5.604 0.087 11.209 0.046 16.813 0.159 0.081 1.133 0.205 2.264 0.242 3.399-5.347 0.534-10.712 0.926-16.061 1.487-0.251 0.037-0.768-0.03-0.654 0.396 0.421 10.187 0.787 20.379 1.202 30.567 0.187 2.326-0.271 4.743 0.522 6.991 0.292 0.836 0.928 1.759 1.902 1.791 2.125 0.115 4.057-0.965 5.83-2.006 2.245-1.437 4.384-3.062 6.295-4.92-0.987-0.566-2.139-0.712-3.182-1.141 0.384-0.483 0.928-0.792 1.406-1.169 2.248-1.711 4.5-3.461 6.347-5.614 0.631-0.711 1.119-1.533 1.743-2.249v10.765c-0.597 3.066-1.52 6.237-3.606 8.646-0.175-2.001-0.363-4.007-0.762-5.976-1.524 1.384-2.791 3.039-4.336 4.407-1.729 1.65-3.691 3.122-5.969 3.924-3.521 1.347-7.129 3.263-9.098 6.622h-0.373c-0.688-1.062-1.504-2.052-2.53-2.8-2.906-2.142-6.598-2.855-9.48-5.038-2.973-1.937-5.225-4.721-7.812-7.104-0.497 1.935-0.297 3.961-0.661 5.909-2.936-3.537-3.88-8.255-4.188-12.723v-4.381c0.122-0.595 0.131-1.2 0.166-1.801 0.214 0.145 0.398 0.317 0.555 0.52 2.054 2.711 4.803 4.788 7.603 6.674 0.544 0.382 1.153 0.679 1.63 1.153-0.863 0.451-1.784 0.771-2.705 1.073-0.407 0.051-0.431 0.601-0.088 0.76 2.618 2.181 5.329 4.315 8.384 5.855 1.361 0.327 2.948 1.006 4.256 0.166 1.289-0.744 1.725-2.289 1.901-3.671 0.288-2.3 0.272-4.626 0.434-6.938 0.27-9.515 0.597-19.029 0.833-28.546-4.886-0.513-9.781-0.967-14.67-1.471-0.748-0.097-1.52-0.067-2.238-0.311 0.185-1.068 0.32-2.148 0.463-3.224 2.354 0.012 4.707 0.014 7.061 0.002 3.207-0.157 6.424 0.037 9.632-0.113 0.414-0.817 0.495-1.785 0.218-2.657-1.821-0.412-3.407-1.692-4.213-3.371-0.58-1.626-0.566-3.516 0.23-5.07C45.647 16.524 46.914 15.601 48.243 15zM48.331 18.147c-1.731 1.315-1.446 4.438 0.529 5.365 0.217-0.886-0.309-1.922 0.27-2.71 0.453-0.629 1.289-0.408 1.947-0.412 0.997 0.725 0.687 2.061 0.774 3.118 1.397-0.663 1.95-2.411 1.565-3.843C52.947 17.528 49.924 16.792 48.331 18.147z" fill="#f4a424" data-fill-palette-color="accent"></path></svg></g></svg></g><g></g></svg></g></svg></g></svg></g></svg>